<svg xmlns="http://www.w3.org/2000/svg" viewBox="0 0 512 512" width="24" height="24">
  <path fill="#EA4335" d="M491.52 203.5l-22.572-17.916c-9.004-7.185-21.957-6.017-29.142 2.987L256 332.764l-183.808-144.193c-7.186-9.005-20.138-10.173-29.143-2.988l-22.571 17.917c-9.003 7.185-10.17 20.138-2.986 29.143L230.37 460.978c7.913 9.932 24.41 9.931 32.323 0l204.093-227.334c7.185-9.005 6.017-21.957-2.987-29.142z"/>
  <path fill="#34A853" d="M63.47 326.148l55.692-39.654C115.926 263.476 112 241.643 112 220c0-34.198 27.802-62 62-62s62 27.802 62 62c0 21.643-3.926 43.476-6.162 66.494l-55.692 39.653-55.694-39.653C66.395 369.623 64 345.437 64 320c0-12.68 2.155-25.02 5.65-36.852z"/>
  <path fill="#FBBC05" d="M476.49 281.682c0-15.068-1.23-30.218-3.855-44.682H256v84.908h117.135c-4.85 25.678-27.09 39.415-52.938 39.415-15.42 0-30.064-5.316-41.322-14.989l-12.174 11.218c18.383 15.84 41.675 25.286 66.496 25.286 52.928 0 95.81-42.882 95.81-95.81z"/>
  <path fill="#4285F4" d="M151.505 320c-7.405 20.527-7.252 42.26 0 62h126.322c35.782 0 65.896-24.073 76.817-56.536l-117.14-84.909L151.505 320z"/>
</svg>
